<?xml version="1.0" encoding="utf-8"?>
<!-- Generator: Adobe Illustrator 26.1.0, SVG Export Plug-In . SVG Version: 6.00 Build 0)  -->
<svg version="1.1" id="Layer_1" xmlns="http://www.w3.org/2000/svg" xmlns:xlink="http://www.w3.org/1999/xlink" x="0px" y="0px"
	 viewBox="0 0 727.4 239.7" style="enable-background:new 0 0 727.4 239.7;" xml:space="preserve">
<style type="text/css">
	.st0{fill:#FFFFFF;}
</style>
<g>
	<path class="st0" d="M267.2,188.8c-37.9,0-57.1-19.4-57.1-57.8V60.7c0-1.5,1.2-2.7,2.7-2.7h29.3c1.5,0,2.7,1.2,2.7,2.7v64.6
		c0,24.5,12.6,40.3,32,40.3c20.9,0,36.1-18.5,36.1-43.9V60.7c0-1.5,1.2-2.7,2.7-2.7h29.5c1.5,0,2.7,1.2,2.7,2.7v123.3
		c0,1.5-1.2,2.7-2.7,2.7H318c-1.5,0-2.7-1.2-2.7-2.7v-15.7l-3.1,3.2C301.3,182.7,285.3,188.8,267.2,188.8z"/>
	<path class="st0" d="M679,184.3V60.8c0-1.4,1.1-2.5,2.5-2.5h30c1.4,0,2.5,1.1,2.5,2.5v123.6c0,1.4-1.1,2.5-2.5,2.5h-30
		C680.1,186.8,679,185.7,679,184.3z M679,32v-25c0-1.4,1.1-2.5,2.5-2.5h30c1.4,0,2.5,1.1,2.5,2.5v25c0,1.4-1.1,2.5-2.5,2.5h-30
		C680.1,34.4,679,33.3,679,32z"/>
	<path class="st0" d="M434.9,188.8c-41.2,0-71.2-28.7-71.2-68.2c0-39.5,29.9-68.2,71.2-68.2c41.1,0,70.9,28.7,70.9,68.2
		C505.8,160.1,476,188.8,434.9,188.8z M434.9,74.2c-19.8,0-35.9,20.8-35.9,46.3c0,24.6,15.7,43.8,35.9,43.8
		c20,0,35.6-19.3,35.6-43.8C470.5,95,454.5,74.2,434.9,74.2z"/>
	<path class="st0" d="M588.5,52.4c-12.1,0-23.3,2.5-33,7v-3.7h-30.8c-1.2,0-2.2,1-2.2,2.2v175.2c0,2,2.4,3,3.8,1.5l27.5-28.9
		c2.4-2.5,3.8-5.8,3.8-9.3l0.3-14.3v-1.1c10,5,17.7,7.7,30.5,7.7c41.1,0,70.9-28.7,70.9-68.2C659.4,81.1,629.6,52.4,588.5,52.4z
		 M588.5,164.4c-20.1,0-35.9-19.2-35.9-43.8c0-25.5,16.1-46.3,35.9-46.3c19.6,0,35.6,20.8,35.6,46.3
		C624.1,145.2,608.5,164.4,588.5,164.4z"/>
	<path class="st0" d="M86.8,186.8c-1.3,0-32-0.3-51.9-22.1c-19.7-21.6-21.3-43.5-21.3-66c0-22.4,1.5-45.8,19.9-64.9
		c20.2-20.9,42.8-24,54.5-24l12.8-1l12.1,0c23.4,0,41.1,8.7,59.1,29c16.2,18.4,16.1,45.6,16,46.8c0,0.4,0,4.9,0,29.7
		c0,22.1-9.9,36.5-12.9,40.4l-1,1.2l24.5,25.7c1.9,1.9,0.5,5.2-2.2,5.2H86.8z M100.8,22.5c-29.7,0-53.8,34-53.8,75.8
		c0,41.7,24.2,75.7,53.9,75.7h23.3c2,0,3.1-2.4,1.7-3.9l-30.4-32.3c-1.8-1.9-0.5-5.1,2.2-5.1h51l0.4-1.2c3.7-10.4,5.5-21.6,5.5-33.2
		C154.6,56.5,130.4,22.5,100.8,22.5z"/>
</g>
</svg>
