<?xml version="1.0" encoding="utf-8"?>
<!-- Generator: Adobe Illustrator 19.0.0, SVG Export Plug-In . SVG Version: 6.00 Build 0)  -->
<svg version="1.1" id="Layer_1" xmlns="http://www.w3.org/2000/svg" xmlns:xlink="http://www.w3.org/1999/xlink" x="0px" y="0px"
	 viewBox="0 0 318.1 360.8" style="enable-background:new 0 0 318.1 360.8;" xml:space="preserve">
<style type="text/css">
	.st0{fill:#F7F7F7;}
	.st1{fill:#2762CC;}
	.st2{opacity:0.2;}
</style>
<g id="XMLID_91_">
	<path id="XMLID_736_" class="st0" d="M141.3,210.1c-7.1-0.1-12.5-5.6-12.4-12.6c0.1-6.9,5.8-12.6,12.6-12.7
		c6.9,0,12.9,6.1,12.7,13.1C154,204.8,148.4,210.2,141.3,210.1z"/>
	<path id="XMLID_733_" class="st0" d="M204.6,197.6c0,7-5.4,12.5-12.5,12.5c-7.1,0-12.7-5.4-12.8-12.4c-0.1-7,5.9-13.1,12.8-12.9
		C199,184.9,204.6,190.6,204.6,197.6z"/>
	<path id="XMLID_723_" class="st1" d="M181.5,125.9c0-7.1,0.7-13.6-0.2-19.8c-1.1-8.4-7.3-13.4-15.8-13.6
		c-10.7-0.2-21.4,0.1-32.1-0.2c-4-0.1-4.6,2.4-5.8,4.9c-8.8,17.8-27.9,29.6-46.3,28.1c-21.6-1.8-37.2-12.5-44.7-33.1
		C27.8,67.6,40,40.6,64.1,30.4c23.8-10,51.4,0,62.9,23.3c2.2,4.3,4.5,5.8,9.2,5.7c12.1-0.1,24.3-0.3,36.3,0.9
		c22.4,2.2,40.5,21.7,41.8,44.1c0.4,6.9,0.1,13.9,0.1,20.5c12,2.6,23.4,4.4,34.4,7.4c18,5,34.6,12.9,48,26.5
		c11,11.2,16.9,24.3,16.7,40.4c-0.3,26.7-0.6,53.5,0.1,80.2c0.5,22.1-9.2,38.3-26.2,50.8c-21.3,15.7-46,22.4-71.9,24.6
		c-30.9,2.6-61.2-0.8-89.5-14.6c-18.2-8.9-33.7-20.8-40.2-41.1c-1.8-5.6-2.3-11.7-2.4-17.6c-0.2-26.7,0.4-53.5-0.3-80.2
		c-0.5-21.8,9.1-37.9,25.8-50.4c19.3-14.4,41.6-20.9,65.1-24.2C176.4,126.5,178.8,126.2,181.5,125.9z M280.7,240.6
		c0-13.6-0.1-27.1,0-40.7c0.1-7.2-2.2-13.5-7.7-18.1c-4.5-3.8-9.3-7.6-14.5-10.3c-28.1-14.3-57.9-15.7-88.3-10.7
		c-15.8,2.6-30.6,7.9-43.3,17.9c-7.4,5.8-11.2,13-11.1,22.8c0.3,26.3,0.2,52.6,0,79c-0.1,8.2,2.6,15.2,9.1,19.9
		c6.8,4.9,13.9,9.7,21.5,12.9c23.9,9.9,49.1,11.3,74.5,7.8c17.7-2.4,34.4-7.6,48.8-18.8c7.4-5.8,11.4-13.1,11.1-22.8
		C280.4,266.5,280.7,253.5,280.7,240.6z M99.6,76.1c0.1-8.9-7.3-16.5-16.3-16.7c-8.8-0.1-16.5,7.5-16.7,16.3
		c-0.1,8.8,7.4,16.5,16.4,16.6C92,92.5,99.5,85.1,99.6,76.1z"/>
	<path id="XMLID_720_" class="st2" d="M160.2,222.6c-7.1-0.1-12.5-5.6-12.4-12.6c0.1-6.9,5.8-12.6,12.6-12.7
		c6.9,0,12.9,6.1,12.7,13.1C172.9,217.4,167.3,222.7,160.2,222.6z"/>
	<path id="XMLID_688_" class="st2" d="M223.5,210.1c0,7-5.4,12.5-12.5,12.5c-7.1,0-12.7-5.4-12.8-12.4c-0.1-7,5.9-13.1,12.8-12.9
		C217.9,197.5,223.5,203.2,223.5,210.1z"/>
	<path id="XMLID_121_" class="st0" d="M152.2,104.5c0-7.1,0.7-13.6-0.2-19.8c-1.1-8.4-7.3-13.4-15.8-13.6
		c-10.7-0.2-21.4,0.1-32.1-0.2c-4-0.1-4.6,2.4-5.8,4.9c-8.8,17.8-27.9,29.6-46.3,28.1C30.5,102.2,15,91.5,7.5,70.8
		C-1.5,46.2,10.8,19.2,34.9,9c23.8-10,51.4,0,62.9,23.3c2.2,4.3,4.5,5.8,9.2,5.7c12.1-0.1,24.3-0.3,36.3,0.9
		c22.4,2.2,40.5,21.7,41.8,44.1c0.4,6.9,0.1,13.9,0.1,20.5c12,2.6,23.4,4.4,34.4,7.4c18,5,34.6,12.9,48,26.5
		c11,11.2,16.9,24.3,16.7,40.4c-0.3,26.7-0.6,53.5,0.1,80.2c0.5,22.1-9.2,38.3-26.2,50.8c-21.3,15.7-46,22.4-71.9,24.6
		c-30.9,2.6-61.2-0.8-89.5-14.6C78.5,310,63,298.1,56.6,277.8c-1.8-5.6-2.3-11.7-2.4-17.6c-0.2-26.7,0.4-53.5-0.3-80.2
		c-0.5-21.8,9.1-37.9,25.8-50.4c19.3-14.4,41.6-20.9,65.1-24.2C147.2,105.1,149.6,104.8,152.2,104.5z M251.5,219.2
		c0-13.6-0.1-27.1,0-40.7c0.1-7.2-2.2-13.5-7.7-18.1c-4.5-3.8-9.3-7.6-14.5-10.3c-28.1-14.3-57.9-15.7-88.3-10.7
		c-15.8,2.6-30.6,7.9-43.3,17.9c-7.4,5.8-11.2,13-11.1,22.8c0.3,26.3,0.2,52.6,0,79c-0.1,8.2,2.6,15.2,9.1,19.9
		c6.8,4.9,13.9,9.7,21.5,12.9c23.9,9.9,49.1,11.3,74.5,7.8c17.7-2.4,34.4-7.6,48.8-18.8c7.4-5.8,11.4-13.1,11.1-22.8
		C251.2,245.1,251.5,232.2,251.5,219.2z M70.3,54.7c0.1-8.9-7.3-16.5-16.3-16.7c-8.8-0.1-16.5,7.5-16.7,16.3
		c-0.1,8.8,7.4,16.5,16.4,16.6C62.7,71.1,70.2,63.7,70.3,54.7z"/>
</g>
</svg>
