<?xml version="1.0" encoding="utf-8"?>
<!-- Generator: Adobe Illustrator 26.1.0, SVG Export Plug-In . SVG Version: 6.00 Build 0)  -->
<svg version="1.1" id="Layer_1" xmlns="http://www.w3.org/2000/svg" xmlns:xlink="http://www.w3.org/1999/xlink" x="0px" y="0px"
	 viewBox="0 0 340.2 71.2" style="enable-background:new 0 0 340.2 71.2;" xml:space="preserve">
<style type="text/css">
	.st0{fill:#73CF0E;}
</style>
<g>
	<g>
		<g>
			<path class="st0" d="M60.7,71.2c-0.3-0.2-0.7-0.4-1-0.6c-7-5.1-14-10.2-20.9-15.3c-0.8-0.6-1.3-0.6-2.1,0c-6.9,5-13.9,10-20.8,15
				c-0.3,0.2-0.7,0.5-1.3,0.9c0.2-0.8,0.2-1.2,0.4-1.7c2.6-8.1,5.3-16.1,7.9-24.2c0.3-1,0.2-1.5-0.7-2.2c-7-5-13.9-10-20.8-15
				C0.9,28,0.6,27.7,0,27.2c0.8-0.1,1.3-0.1,1.8-0.1c8.5,0,17.1,0,25.6,0c1.1,0,1.6-0.4,1.9-1.4c2.5-8,5.2-15.9,7.8-23.9
				c0.2-0.5,0.4-1,0.7-1.8c0.3,0.7,0.5,1.1,0.7,1.5c2.6,7.9,5.2,15.9,7.8,23.9c0.4,1.2,0.9,1.7,2.3,1.7c8.4-0.1,16.8,0,25.2,0
				c0.5,0,1,0,1.4,0c0.1,0.2,0.1,0.3,0.2,0.5C63.2,36.2,51.1,44.9,39,53.7c0,0,0,0.1,0.1,0.1c4.3-1.1,8.7-2.2,13-3.3
				c2.2-0.5,1.9-0.8,2.7,1.4c1.9,6,3.9,11.9,5.8,17.9c0.1,0.4,0.2,0.8,0.4,1.2C60.8,71.1,60.8,71.2,60.7,71.2z"/>
		</g>
		<g>
			<path class="st0" d="M149.1,71.2c-0.3-0.2-0.7-0.4-1-0.6c-7-5.1-14-10.2-20.9-15.3c-0.8-0.6-1.3-0.6-2.1,0
				c-6.9,5-13.9,10-20.8,15c-0.3,0.2-0.7,0.5-1.3,0.9c0.2-0.8,0.2-1.2,0.4-1.7c2.6-8.1,5.3-16.1,7.9-24.2c0.3-1,0.2-1.5-0.7-2.2
				c-7-5-13.9-10-20.8-15c-0.4-0.3-0.7-0.6-1.3-1.1c0.8-0.1,1.3-0.1,1.8-0.1c8.5,0,17.1,0,25.6,0c1.1,0,1.6-0.4,1.9-1.4
				c2.5-8,5.2-15.9,7.8-23.9c0.2-0.5,0.4-1,0.7-1.8c0.3,0.7,0.5,1.1,0.7,1.5c2.6,7.9,5.2,15.9,7.8,23.9c0.4,1.2,0.9,1.7,2.3,1.7
				c8.4-0.1,16.8,0,25.2,0c0.5,0,1,0,1.4,0c0.1,0.2,0.1,0.3,0.2,0.5c-12.1,8.7-24.1,17.4-36.2,26.2c0,0,0,0.1,0.1,0.1
				c4.3-1.1,8.7-2.2,13-3.3c2.2-0.5,1.9-0.8,2.7,1.4c1.9,6,3.9,11.9,5.8,17.9c0.1,0.4,0.2,0.8,0.4,1.2
				C149.2,71.1,149.1,71.2,149.1,71.2z"/>
		</g>
		<g>
			<path class="st0" d="M237.5,71.2c-0.3-0.2-0.7-0.4-1-0.6c-7-5.1-14-10.2-20.9-15.3c-0.8-0.6-1.3-0.6-2.1,0
				c-6.9,5-13.9,10-20.8,15c-0.3,0.2-0.7,0.5-1.3,0.9c0.2-0.8,0.2-1.2,0.4-1.7c2.6-8.1,5.3-16.1,7.9-24.2c0.3-1,0.2-1.5-0.7-2.2
				c-7-5-13.9-10-20.8-15c-0.4-0.3-0.7-0.6-1.3-1.1c0.8-0.1,1.3-0.1,1.8-0.1c8.5,0,17.1,0,25.6,0c1.1,0,1.6-0.4,1.9-1.4
				c2.5-8,5.2-15.9,7.8-23.9c0.2-0.5,0.4-1,0.7-1.8c0.3,0.7,0.5,1.1,0.7,1.5c2.6,7.9,5.2,15.9,7.8,23.9c0.4,1.2,0.9,1.7,2.3,1.7
				c8.4-0.1,16.8,0,25.2,0c0.5,0,1,0,1.4,0c0.1,0.2,0.1,0.3,0.2,0.5c-12.1,8.7-24.1,17.4-36.2,26.2c0,0,0,0.1,0.1,0.1
				c4.3-1.1,8.7-2.2,13-3.3c2.2-0.5,1.9-0.8,2.7,1.4c1.9,6,3.9,11.9,5.8,17.9c0.1,0.4,0.2,0.8,0.4,1.2
				C237.6,71.1,237.5,71.2,237.5,71.2z"/>
		</g>
		<g>
			<path class="st0" d="M325.8,71.2c-0.3-0.2-0.7-0.4-1-0.6c-7-5.1-14-10.2-20.9-15.3c-0.8-0.6-1.3-0.6-2.1,0
				c-6.9,5-13.9,10-20.8,15c-0.3,0.2-0.7,0.5-1.3,0.9c0.2-0.8,0.2-1.2,0.4-1.7c2.6-8.1,5.3-16.1,7.9-24.2c0.3-1,0.2-1.5-0.7-2.2
				c-7-5-13.9-10-20.8-15c-0.4-0.3-0.7-0.6-1.3-1.1c0.8-0.1,1.3-0.1,1.8-0.1c8.5,0,17.1,0,25.6,0c1.1,0,1.6-0.4,1.9-1.4
				c2.5-8,5.2-15.9,7.8-23.9c0.2-0.5,0.4-1,0.7-1.8c0.3,0.7,0.5,1.1,0.7,1.5c2.6,7.9,5.2,15.9,7.8,23.9c0.4,1.2,0.9,1.7,2.3,1.7
				c8.4-0.1,16.8,0,25.2,0c0.5,0,1,0,1.4,0c0.1,0.2,0.1,0.3,0.2,0.5c-12.1,8.7-24.1,17.4-36.2,26.2c0,0,0,0.1,0.1,0.1
				c4.3-1.1,8.7-2.2,13-3.3c2.2-0.5,1.9-0.8,2.7,1.4c1.9,6,3.9,11.9,5.8,17.9c0.1,0.4,0.2,0.8,0.4,1.2
				C326,71.1,325.9,71.2,325.8,71.2z"/>
		</g>
	</g>
</g>
</svg>
