<?xml version="1.0" encoding="utf-8"?>
<!-- Generator: Adobe Illustrator 26.1.0, SVG Export Plug-In . SVG Version: 6.00 Build 0)  -->
<svg version="1.1" id="Layer_1" xmlns="http://www.w3.org/2000/svg" xmlns:xlink="http://www.w3.org/1999/xlink" x="0px" y="0px"
	 viewBox="0 0 251.9 19.4" style="enable-background:new 0 0 251.9 19.4;" xml:space="preserve">
<style type="text/css">
	.st0{fill:#FFFFFF;}
	.st1{fill:#00B77B;}
</style>
<g>
	<g>
		<g>
			<g>
				<path class="st0" d="M182.3,15.7V4h7v1.2h-5.6v3.9h5.2v1.2h-5.2v3.9h5.7v1.2H182.3z"/>
				<path class="st0" d="M193,6.9l2.1,3.6l2.1-3.6h1.5l-2.8,4.4l2.8,4.4h-1.5l-2.1-3.4l-2.1,3.4h-1.5l2.8-4.4l-2.8-4.4H193z"/>
				<path class="st0" d="M204.1,15.8c-0.8,0-1.5-0.2-2.1-0.6c-0.6-0.4-1-0.9-1.4-1.6c-0.3-0.7-0.5-1.5-0.5-2.3
					c0-0.9,0.2-1.7,0.5-2.3s0.8-1.2,1.4-1.6c0.6-0.4,1.3-0.6,2.1-0.6c0.6,0,1.2,0.1,1.7,0.3c0.5,0.2,0.9,0.5,1.2,1
					c0.3,0.4,0.5,0.9,0.6,1.4h-1.3c-0.1-0.4-0.3-0.8-0.7-1.1c-0.3-0.3-0.8-0.5-1.4-0.5c-0.5,0-1,0.1-1.4,0.4s-0.7,0.7-0.9,1.1
					c-0.2,0.5-0.3,1.1-0.3,1.7c0,0.7,0.1,1.3,0.3,1.8c0.2,0.5,0.5,0.9,0.9,1.2s0.9,0.4,1.4,0.4c0.3,0,0.7-0.1,0.9-0.2
					c0.3-0.1,0.5-0.3,0.7-0.5c0.2-0.2,0.3-0.5,0.4-0.8h1.3c-0.1,0.5-0.3,1-0.6,1.4c-0.3,0.4-0.7,0.7-1.2,1
					C205.3,15.7,204.8,15.8,204.1,15.8z"/>
				<path class="st0" d="M213.5,15.8c-0.8,0-1.6-0.2-2.2-0.6c-0.6-0.4-1.1-0.9-1.4-1.6s-0.5-1.5-0.5-2.3c0-0.9,0.2-1.7,0.5-2.4
					c0.3-0.7,0.8-1.2,1.4-1.6c0.6-0.4,1.3-0.6,2.1-0.6c0.5,0,0.9,0.1,1.3,0.2s0.8,0.4,1.2,0.7c0.4,0.3,0.7,0.8,0.9,1.3
					s0.3,1.2,0.3,2.1v0.6h-6.7v-1.2h5.4c0-0.5-0.1-0.9-0.3-1.3c-0.2-0.4-0.5-0.7-0.8-0.9S213.8,8,213.4,8c-0.5,0-1,0.1-1.4,0.4
					c-0.4,0.3-0.7,0.6-0.9,1s-0.3,0.9-0.3,1.4v0.8c0,0.7,0.1,1.2,0.3,1.7c0.2,0.5,0.5,0.8,1,1c0.4,0.2,0.9,0.4,1.4,0.4
					c0.4,0,0.7,0,1-0.2c0.3-0.1,0.5-0.3,0.7-0.5c0.2-0.2,0.4-0.5,0.5-0.8l1.3,0.4c-0.1,0.4-0.4,0.8-0.7,1.2
					c-0.3,0.3-0.7,0.6-1.2,0.8C214.6,15.7,214.1,15.8,213.5,15.8z"/>
				<path class="st0" d="M220.8,4v11.6h-1.3V4H220.8z"/>
				<path class="st0" d="M224.9,4v11.6h-1.3V4H224.9z"/>
				<path class="st0" d="M231.3,15.8c-0.8,0-1.6-0.2-2.2-0.6c-0.6-0.4-1.1-0.9-1.4-1.6s-0.5-1.5-0.5-2.3c0-0.9,0.2-1.7,0.5-2.4
					c0.3-0.7,0.8-1.2,1.4-1.6c0.6-0.4,1.3-0.6,2.1-0.6c0.5,0,0.9,0.1,1.3,0.2s0.8,0.4,1.2,0.7c0.4,0.3,0.7,0.8,0.9,1.3
					s0.3,1.2,0.3,2.1v0.6h-6.7v-1.2h5.4c0-0.5-0.1-0.9-0.3-1.3c-0.2-0.4-0.5-0.7-0.8-0.9S231.7,8,231.2,8c-0.5,0-1,0.1-1.4,0.4
					c-0.4,0.3-0.7,0.6-0.9,1s-0.3,0.9-0.3,1.4v0.8c0,0.7,0.1,1.2,0.3,1.7c0.2,0.5,0.5,0.8,1,1c0.4,0.2,0.9,0.4,1.4,0.4
					c0.4,0,0.7,0,1-0.2c0.3-0.1,0.5-0.3,0.7-0.5c0.2-0.2,0.4-0.5,0.5-0.8l1.3,0.4c-0.1,0.4-0.4,0.8-0.7,1.2
					c-0.3,0.3-0.7,0.6-1.2,0.8C232.5,15.7,231.9,15.8,231.3,15.8z"/>
				<path class="st0" d="M238.6,10.4v5.2h-1.3V6.9h1.3v1.4h0.1c0.2-0.4,0.5-0.8,0.9-1.1s1-0.4,1.6-0.4c0.6,0,1.1,0.1,1.5,0.4
					s0.8,0.6,1,1.1c0.2,0.5,0.4,1.1,0.4,1.8v5.5h-1.3v-5.4c0-0.7-0.2-1.2-0.5-1.6C242,8.2,241.5,8,240.9,8c-0.4,0-0.8,0.1-1.1,0.3
					c-0.3,0.2-0.6,0.5-0.8,0.8C238.7,9.5,238.6,9.9,238.6,10.4z"/>
				<path class="st0" d="M250.8,6.9v1.1h-4.5V6.9H250.8z M247.6,4.8h1.3v8.3c0,0.4,0.1,0.7,0.2,0.8s0.3,0.3,0.4,0.4s0.4,0.1,0.6,0.1
					c0.1,0,0.3,0,0.4,0c0.1,0,0.2,0,0.2,0l0.3,1.2c-0.1,0-0.2,0.1-0.4,0.1c-0.2,0-0.4,0.1-0.6,0.1c-0.4,0-0.7-0.1-1.1-0.2
					c-0.4-0.2-0.7-0.4-0.9-0.7c-0.2-0.3-0.4-0.8-0.4-1.3V4.8z"/>
			</g>
		</g>
	</g>
	<g>
		<g>
			<g>
				<g>
					<path class="st0" d="M56.3,14.4c0,1.3,0,2.4,0,3.7c-0.5,0-0.9,0-1.3,0c0-3.6,0-7.2,0-10.9c0.4,0,0.8,0,1.2,0c0,0.3,0,0.7,0,0.9
						c0.5-0.8,1.3-1,2-1.1c1.6-0.3,3.1,0.7,3.5,2.4c0.3,1.1,0.2,2.3-0.1,3.4C60.9,15.2,58.2,16.2,56.3,14.4z M60.2,12.6
						c0.3-0.9,0.3-1.9,0.1-2.9c0-0.2-0.1-0.3-0.2-0.4c-0.6-1.3-2.6-1.5-3.3-0.3c-0.8,1.3-0.9,2.8-0.2,4.2c0.3,0.7,1,1.1,1.9,1
						c0.8,0,1.4-0.4,1.6-1.1C60.1,12.9,60.2,12.7,60.2,12.6z"/>
					<path class="st0" d="M69.9,13c-0.4-1.3-0.4-2.7,0.1-3.9c0-0.1,0.1-0.2,0.1-0.3C70.8,7.4,72,6.9,73.5,7c1.4,0.1,2.4,0.8,3,2.1
						c0.7,1.6,0.6,3.1-0.2,4.6c-0.7,1.2-1.8,1.7-3.2,1.6c-1.4-0.1-2.4-0.8-3-2.1C70,13.2,70,13.1,69.9,13z M75.2,12.9
						c0.4-1.1,0.5-2.2,0.1-3.3c0-0.1-0.1-0.2-0.1-0.3c-0.4-0.8-1-1.2-1.9-1.2c-0.9,0-1.5,0.5-1.9,1.2c-0.5,1.2-0.5,2.5,0.1,3.7
						c0.4,0.7,1,1.1,1.8,1.1c0.8,0,1.5-0.3,1.9-1C75.1,13.1,75.1,13,75.2,12.9z"/>
					<path class="st0" d="M48.9,9.4c-0.4,0-0.7,0-1.1,0c-0.4-1.3-1.3-1.4-2.7-1.2c-0.5,0.1-0.8,0.4-0.9,1c0,0.6,0.4,0.8,0.8,0.9
						c0.8,0.2,1.6,0.4,2.4,0.6c1.2,0.4,1.8,0.9,1.8,1.9c0,1.1-0.6,2.1-1.7,2.4c-1.1,0.4-2.3,0.4-3.4-0.1c-1-0.4-1.5-1.3-1.4-2.4
						c0.4,0,0.8,0,1.2,0c0.5,1.5,2,2.1,3.3,1.3c0.3-0.2,0.6-0.7,0.6-1c0-0.3-0.4-0.7-0.7-0.8c-0.8-0.3-1.6-0.5-2.4-0.7
						C43.5,11,43,10.5,43,9.5c0-1.2,0.7-2,1.9-2.4c0.9-0.2,1.8-0.2,2.7,0.1C48.4,7.7,48.9,8.4,48.9,9.4z"/>
					<path class="st0" d="M39.9,7.2c0.5,0,0.9,0,1.3,0c0,2.6,0,5.2,0,7.8c-0.4,0-0.8,0-1.2,0c0-0.3,0-0.6,0-1
						c-0.1,0.1-0.2,0.2-0.3,0.3c-0.9,1-2.3,1.3-3.5,0.7c-0.7-0.3-1.2-0.9-1.2-1.6c-0.1-2.1,0-4.1,0-6.2c0.4,0,0.8,0,1.3,0
						c0,0.2,0,0.4,0,0.7c0,1.5,0,3,0,4.5c0,1,0.3,1.5,1,1.7c0.9,0.2,1.8-0.1,2.3-0.9c0.2-0.5,0.4-1,0.4-1.5c0.1-1.2,0-2.5,0-3.8
						C39.9,7.7,39.9,7.5,39.9,7.2z"/>
					<path class="st0" d="M30.1,4.3c0,0.4,0,0.8,0,1.2c-1.2,0-2.4,0-3.6,0c0,3.2,0,6.4,0,9.6c-0.5,0-1,0-1.5,0c0-3.2,0-6.3,0-9.5
						c-1.3,0-2.4,0-3.6,0c0-0.5,0-0.8,0-1.3C24.3,4.3,27.1,4.3,30.1,4.3z"/>
					<path class="st0" d="M78.7,5c0.5,0,0.9,0,1.3,0c0,0.7,0,1.4,0,2.2c0.5,0,0.8,0.1,1.3,0.1c0,0.3,0,0.7,0,1c-0.4,0-0.8,0-1.2,0.1
						c0,0.6,0,1.1,0,1.7c0,1,0,2,0,3c0,0.9,0,1,1,1.1c0.1,0,0.2,0,0.3,0c0,0.3,0,0.6,0,1c-0.3,0-0.6,0.1-0.9,0.1
						c-1.1,0-1.6-0.5-1.7-1.6c0-1.5,0-3.1,0-4.6c0-0.2,0-0.4,0-0.7c-0.4,0-0.7,0-1-0.1c0-0.3,0-0.7,0-1c0.3,0,0.6-0.1,1-0.1
						C78.7,6.4,78.7,5.7,78.7,5z"/>
					<path class="st0" d="M50,8.3c0-0.4,0-0.7,0-1c0.3,0,0.6-0.1,1-0.1c0-0.7,0-1.4,0-2.2c0.5,0,0.9,0,1.3,0c0,0.7,0,1.4,0,2.2
						c0.4,0,0.8,0.1,1.2,0.1c0,0.3,0,0.7,0,1c-0.4,0-0.8,0-1.2,0.1c0,0.9,0,1.7,0,2.6c0,0.7,0,1.5,0,2.2c0,0.8,0.1,0.9,0.9,1
						c0.1,0,0.2,0,0.5,0.1c-0.1,0.4-0.2,0.9-0.4,1c-0.9,0.4-1.9,0-2.1-0.7c-0.1-0.3-0.1-0.7-0.1-1c0-1.4,0-2.9,0-4.3
						c0-0.2,0-0.5,0-0.7C50.7,8.3,50.4,8.3,50,8.3z"/>
					<path class="st0" d="M68,15.1c-0.4,0-0.8,0-1.2,0c0-3.6,0-7.2,0-10.8c0.4,0,0.8,0,1.2,0C68,7.9,68,11.4,68,15.1z"/>
					<path class="st0" d="M33.5,7c0,0.5,0,0.9,0,1.3c-0.1,0-0.1,0.1-0.1,0.1C31.6,8.5,31,9.2,31,10.9c0,1.4,0,2.7,0,4.2
						c-0.4,0-0.8,0-1.2,0c0-2.6,0-5.2,0-7.8c0.3,0,0.7,0,1.1,0c0,0.3,0,0.7,0.1,1.2C31.6,7.5,32.3,6.9,33.5,7z"/>
					<path class="st0" d="M63.4,7.2c0.5,0,0.9,0,1.3,0c0,2.6,0,5.2,0,7.8c0,0-0.1,0.1-0.1,0.1c-1.2,0.1-1.2,0.1-1.2-1.1
						c0-2,0-4.1,0-6.1C63.4,7.7,63.4,7.5,63.4,7.2z"/>
					<path class="st0" d="M64.8,5.7c-0.4,0-0.8,0-1.2,0c0-0.5,0-0.9,0-1.4c0.4,0,0.8,0,1.2,0C64.8,4.8,64.8,5.2,64.8,5.7z"/>
				</g>
			</g>
			<path class="st1" d="M15.1,17.8c-0.1,0-0.2-0.1-0.2-0.1c-1.6-1.2-3.3-2.4-4.9-3.6c-0.2-0.1-0.3-0.1-0.5,0
				c-1.6,1.2-3.2,2.3-4.8,3.5c-0.1,0.1-0.2,0.1-0.3,0.2c0-0.2,0-0.3,0.1-0.4c0.6-1.9,1.2-3.8,1.8-5.6c0.1-0.2,0-0.4-0.2-0.5
				C4.5,10.2,2.9,9,1.2,7.8C1.2,7.8,1.1,7.7,0.9,7.6c0.2,0,0.3,0,0.4,0c2,0,4,0,6,0c0.3,0,0.4-0.1,0.4-0.3c0.6-1.9,1.2-3.7,1.8-5.6
				c0-0.1,0.1-0.2,0.2-0.4c0.1,0.2,0.1,0.3,0.2,0.4c0.6,1.9,1.2,3.7,1.8,5.6c0.1,0.3,0.2,0.4,0.5,0.4c2,0,3.9,0,5.9,0
				c0.1,0,0.2,0,0.3,0c0,0,0,0.1,0,0.1c-2.8,2-5.6,4.1-8.4,6.1c0,0,0,0,0,0c1-0.3,2-0.5,3-0.8c0.5-0.1,0.4-0.2,0.6,0.3
				c0.5,1.4,0.9,2.8,1.4,4.2C15.1,17.6,15.1,17.7,15.1,17.8C15.1,17.8,15.1,17.8,15.1,17.8z"/>
		</g>
		<g>
			<rect x="89.4" y="2.4" class="st1" width="15.5" height="15.5"/>
			<path class="st0" d="M100.7,15.7c-0.1,0-0.1-0.1-0.2-0.1c-1.1-0.8-2.2-1.6-3.2-2.4c-0.1-0.1-0.2-0.1-0.3,0
				c-1.1,0.8-2.2,1.6-3.2,2.3c-0.1,0-0.1,0.1-0.2,0.1c0-0.1,0-0.2,0.1-0.3c0.4-1.2,0.8-2.5,1.2-3.7c0.1-0.2,0-0.2-0.1-0.3
				c-1.1-0.8-2.2-1.5-3.2-2.3c-0.1,0-0.1-0.1-0.2-0.2c0.1,0,0.2,0,0.3,0c1.3,0,2.6,0,4,0c0.2,0,0.2-0.1,0.3-0.2
				c0.4-1.2,0.8-2.5,1.2-3.7c0-0.1,0.1-0.2,0.1-0.3c0,0.1,0.1,0.2,0.1,0.2c0.4,1.2,0.8,2.5,1.2,3.7c0.1,0.2,0.1,0.3,0.4,0.3
				c1.3,0,2.6,0,3.9,0c0.1,0,0.1,0,0.2,0c0,0,0,0,0,0.1c-1.9,1.4-3.7,2.7-5.6,4.1c0,0,0,0,0,0c0.7-0.2,1.3-0.3,2-0.5
				c0.3-0.1,0.3-0.1,0.4,0.2c0.3,0.9,0.6,1.8,0.9,2.8C100.7,15.5,100.7,15.6,100.7,15.7C100.7,15.6,100.7,15.6,100.7,15.7z"/>
		</g>
		<g>
			<rect x="106.5" y="2.4" class="st1" width="15.5" height="15.5"/>
			<path class="st0" d="M117.8,15.7c-0.1,0-0.1-0.1-0.2-0.1c-1.1-0.8-2.2-1.6-3.2-2.4c-0.1-0.1-0.2-0.1-0.3,0
				c-1.1,0.8-2.2,1.6-3.2,2.3c-0.1,0-0.1,0.1-0.2,0.1c0-0.1,0-0.2,0.1-0.3c0.4-1.2,0.8-2.5,1.2-3.7c0.1-0.2,0-0.2-0.1-0.3
				c-1.1-0.8-2.2-1.5-3.2-2.3c-0.1,0-0.1-0.1-0.2-0.2c0.1,0,0.2,0,0.3,0c1.3,0,2.6,0,4,0c0.2,0,0.2-0.1,0.3-0.2
				c0.4-1.2,0.8-2.5,1.2-3.7c0-0.1,0.1-0.2,0.1-0.3c0,0.1,0.1,0.2,0.1,0.2c0.4,1.2,0.8,2.5,1.2,3.7c0.1,0.2,0.1,0.3,0.4,0.3
				c1.3,0,2.6,0,3.9,0c0.1,0,0.1,0,0.2,0c0,0,0,0,0,0.1c-1.9,1.4-3.7,2.7-5.6,4.1c0,0,0,0,0,0c0.7-0.2,1.3-0.3,2-0.5
				c0.3-0.1,0.3-0.1,0.4,0.2c0.3,0.9,0.6,1.8,0.9,2.8C117.8,15.5,117.9,15.6,117.8,15.7C117.9,15.6,117.9,15.6,117.8,15.7z"/>
		</g>
		<g>
			<rect x="123.7" y="2.4" class="st1" width="15.5" height="15.5"/>
			<path class="st0" d="M135,15.7c-0.1,0-0.1-0.1-0.2-0.1c-1.1-0.8-2.2-1.6-3.2-2.4c-0.1-0.1-0.2-0.1-0.3,0
				c-1.1,0.8-2.2,1.6-3.2,2.3c-0.1,0-0.1,0.1-0.2,0.1c0-0.1,0-0.2,0.1-0.3c0.4-1.2,0.8-2.5,1.2-3.7c0.1-0.2,0-0.2-0.1-0.3
				c-1.1-0.8-2.2-1.5-3.2-2.3c-0.1,0-0.1-0.1-0.2-0.2c0.1,0,0.2,0,0.3,0c1.3,0,2.6,0,4,0c0.2,0,0.2-0.1,0.3-0.2
				c0.4-1.2,0.8-2.5,1.2-3.7c0-0.1,0.1-0.2,0.1-0.3c0,0.1,0.1,0.2,0.1,0.2c0.4,1.2,0.8,2.5,1.2,3.7c0.1,0.2,0.1,0.3,0.4,0.3
				c1.3,0,2.6,0,3.9,0c0.1,0,0.1,0,0.2,0c0,0,0,0,0,0.1c-1.9,1.4-3.7,2.7-5.6,4.1c0,0,0,0,0,0c0.7-0.2,1.3-0.3,2-0.5
				c0.3-0.1,0.3-0.1,0.4,0.2c0.3,0.9,0.6,1.8,0.9,2.8C135,15.5,135,15.6,135,15.7C135,15.6,135,15.6,135,15.7z"/>
		</g>
		<g>
			<rect x="140.9" y="2.4" class="st1" width="15.5" height="15.5"/>
			<path class="st0" d="M152.2,15.7c-0.1,0-0.1-0.1-0.2-0.1c-1.1-0.8-2.2-1.6-3.2-2.4c-0.1-0.1-0.2-0.1-0.3,0
				c-1.1,0.8-2.2,1.6-3.2,2.3c-0.1,0-0.1,0.1-0.2,0.1c0-0.1,0-0.2,0.1-0.3c0.4-1.2,0.8-2.5,1.2-3.7c0.1-0.2,0-0.2-0.1-0.3
				c-1.1-0.8-2.2-1.5-3.2-2.3c-0.1,0-0.1-0.1-0.2-0.2c0.1,0,0.2,0,0.3,0c1.3,0,2.6,0,4,0c0.2,0,0.2-0.1,0.3-0.2
				c0.4-1.2,0.8-2.5,1.2-3.7c0-0.1,0.1-0.2,0.1-0.3c0,0.1,0.1,0.2,0.1,0.2c0.4,1.2,0.8,2.5,1.2,3.7c0.1,0.2,0.1,0.3,0.4,0.3
				c1.3,0,2.6,0,3.9,0c0.1,0,0.1,0,0.2,0c0,0,0,0,0,0.1c-1.9,1.4-3.7,2.7-5.6,4.1c0,0,0,0,0,0c0.7-0.2,1.3-0.3,2-0.5
				c0.3-0.1,0.3-0.1,0.4,0.2c0.3,0.9,0.6,1.8,0.9,2.8C152.2,15.5,152.2,15.6,152.2,15.7C152.2,15.6,152.2,15.6,152.2,15.7z"/>
		</g>
		<g>
			<rect x="158.1" y="2.4" class="st1" width="15.5" height="15.5"/>
			<path class="st0" d="M169.4,15.7c-0.1,0-0.1-0.1-0.2-0.1c-1.1-0.8-2.2-1.6-3.2-2.4c-0.1-0.1-0.2-0.1-0.3,0
				c-1.1,0.8-2.2,1.6-3.2,2.3c-0.1,0-0.1,0.1-0.2,0.1c0-0.1,0-0.2,0.1-0.3c0.4-1.2,0.8-2.5,1.2-3.7c0.1-0.2,0-0.2-0.1-0.3
				c-1.1-0.8-2.2-1.5-3.2-2.3c-0.1,0-0.1-0.1-0.2-0.2c0.1,0,0.2,0,0.3,0c1.3,0,2.6,0,4,0c0.2,0,0.2-0.1,0.3-0.2
				c0.4-1.2,0.8-2.5,1.2-3.7c0-0.1,0.1-0.2,0.1-0.3c0,0.1,0.1,0.2,0.1,0.2c0.4,1.2,0.8,2.5,1.2,3.7c0.1,0.2,0.1,0.3,0.4,0.3
				c1.3,0,2.6,0,3.9,0c0.1,0,0.1,0,0.2,0c0,0,0,0,0,0.1c-1.9,1.4-3.7,2.7-5.6,4.1c0,0,0,0,0,0c0.7-0.2,1.3-0.3,2-0.5
				c0.3-0.1,0.3-0.1,0.4,0.2c0.3,0.9,0.6,1.8,0.9,2.8C169.4,15.5,169.4,15.6,169.4,15.7C169.4,15.6,169.4,15.6,169.4,15.7z"/>
		</g>
	</g>
</g>
</svg>
