<?xml version="1.0" encoding="utf-8"?>
<!-- Generator: Adobe Illustrator 26.1.0, SVG Export Plug-In . SVG Version: 6.00 Build 0)  -->
<svg version="1.1" id="Layer_1" xmlns="http://www.w3.org/2000/svg" xmlns:xlink="http://www.w3.org/1999/xlink" x="0px" y="0px"
	 viewBox="0 0 141.4 141.4" style="enable-background:new 0 0 141.4 141.4;" xml:space="preserve">
<style type="text/css">
	.st0{fill:#FFFDFD;}
	.st1{fill:#212633;}
</style>
<circle class="st0" cx="70.7" cy="70.7" r="70.7"/>
<path class="st1" d="M60.5,38.9c7.2-1,14.4-1.1,21.6,0c0.7-1.3,1.3-2.6,1.9-3.9c0.4-1,0.9-1.2,2-1c6,1.1,11.7,2.9,17.2,5.4
	c0.7,0.3,1.3,0.9,1.7,1.5c7.2,10.8,12.1,22.6,13.3,35.7c0.5,5.6,0.3,11.3,0.3,16.9c0,0.4-0.4,1-0.8,1.3c-6.9,5-14.4,8.9-22.6,11.4
	c-0.4,0.1-1.1-0.1-1.3-0.4c-1.6-2.4-3.1-4.9-4.8-7.5c2.8-1.4,5.4-2.6,8.1-3.9c-1-1.3-1.9-1.8-3.4-1.1c-7.4,3.3-15.1,4.9-23.2,4.8
	C63,98,55.7,96.4,48.8,93.3c-1.5-0.7-2.5-0.4-3.5,1c2.6,1.3,5.2,2.5,8,3.9c-1.7,2.8-3.4,5.5-5.1,8.2c-8.7-2.6-16.4-6.5-23.5-11.7
	c-0.4-0.3-0.8-0.9-0.8-1.4c-1.7-19.1,3-36.6,13.6-52.6c0.4-0.5,0.9-1,1.5-1.3c5.7-2.6,11.7-4.4,18-5.5c0.4-0.1,1,0.3,1.2,0.7
	C59,36,59.7,37.4,60.5,38.9z M55.8,83.3c0.4-0.1,1.2-0.1,1.9-0.3c6.2-2,8.4-10.4,4.1-15.7c-3.5-4.3-9.6-4.1-12.9,0.3
	c-2.6,3.5-2.7,8.4-0.2,12C50.3,81.9,52.5,83.3,55.8,83.3z M87.2,83.4c0.7-0.1,1.5-0.2,2.2-0.4c3.8-1.2,5.6-4,6.2-7.8
	c0.9-5.8-3.2-11.3-8.8-11c-4.4,0.2-7.9,4.1-8.2,9.2C78.3,78.7,82.3,83.3,87.2,83.4z"/>
</svg>
