<?xml version="1.0" encoding="utf-8"?>
<!-- Generator: Adobe Illustrator 26.1.0, SVG Export Plug-In . SVG Version: 6.00 Build 0)  -->
<svg version="1.1" id="Layer_1" xmlns="http://www.w3.org/2000/svg" xmlns:xlink="http://www.w3.org/1999/xlink" x="0px" y="0px"
	 viewBox="0 0 141.4 141.4" style="enable-background:new 0 0 141.4 141.4;" xml:space="preserve">
<style type="text/css">
	.st0{fill:#FFFDFD;}
	.st1{fill:#212633;}
</style>
<circle class="st0" cx="70.7" cy="70.7" r="70.7"/>
<g>
	<path class="st1" d="M66.9,90.2c-3.3,3.1-6.5,6.2-9.7,9.2c-0.8,0.8-2,1.2-3.2,1.9c0-1.7-0.1-3,0-4.3c0.3-4.7,0.7-9.5,1-14.2
		c0.1-0.9,0.3-1.6,1.1-2.2C67.4,70.5,78.7,60.3,90,50.1c0.2-0.1,0.4-0.3,0.5-0.4c0.3-0.4,0.5-0.9,0.8-1.4c-0.6-0.1-1.2-0.2-1.8-0.1
		c-0.6,0.1-1.1,0.5-1.6,0.8c-14.1,8.8-28.1,17.6-42.2,26.4c-1,0.6-1.8,0.7-2.9,0.4c-5.7-1.8-11.4-3.6-17.2-5.4
		c-0.8-0.3-1.6-0.6-2.3-1.1c-1.2-0.9-1.4-2.1-0.3-3.1c1-0.9,2.3-1.6,3.6-2.1C51,54.7,75.5,45.4,100,36c4-1.5,6.6,0.7,5.9,4.9
		c-0.6,3.3-1.3,6.6-2,9.8c-1.7,7.8-3.3,15.6-5,23.3c-1.9,9-3.8,18-5.8,27c-0.9,4.2-3.9,5.3-7.4,2.8c-4.4-3.2-8.7-6.4-13.1-9.6
		C70.7,93,68.9,91.6,66.9,90.2z"/>
</g>
</svg>
