<?xml version="1.0" encoding="utf-8"?>
<!-- Generator: Adobe Illustrator 26.1.0, SVG Export Plug-In . SVG Version: 6.00 Build 0)  -->
<svg version="1.1" id="Layer_1" xmlns="http://www.w3.org/2000/svg" xmlns:xlink="http://www.w3.org/1999/xlink" x="0px" y="0px"
	 viewBox="0 0 141.4 141.4" style="enable-background:new 0 0 141.4 141.4;" xml:space="preserve">
<style type="text/css">
	.st0{fill:#FFFDFD;}
	.st1{fill:#212633;}
</style>
<circle class="st0" cx="70.7" cy="70.7" r="70.7"/>
<g>
	<path class="st1" d="M36,98.9c8.6,0.1,16.4-1.3,23.3-6.4c-1.5-0.5-2.9-1-4.3-1.5c-3.8-1.6-7.1-3.9-9.2-7.6
		c-1.5-2.6-1.3-2.9,1.6-2.9c1.1,0,2.2,0,3.4-0.2c-3.3-1.6-6.4-3.5-8.7-6.5c-2.3-2.9-3.2-6.4-3.8-10.3c2.3,0.6,4.3,1.2,6.3,1.8
		c0.1-0.1,0.2-0.3,0.3-0.4c-0.4-0.5-0.7-1.1-1.2-1.6c-5.6-6-5.9-12.7-3-20c0-0.1,0.1-0.2,0.3-0.4C50.1,53,61.1,59.4,75,60.4
		c0-0.8,0.1-1.6,0-2.3c-0.7-7.8,4.2-15.3,11.7-17.5c4.5-1.3,9-1.1,13.1,1.5c0.5,0.3,1.1,0.6,1.6,1c1.8,1.9,3.8,1.8,6.1,0.8
		c2.1-1,4.4-1.7,6.9-2.4c-0.8,1.4-1.6,2.8-2.5,4.2c-0.9,1.3-2,2.5-3.2,4c2.9,0.2,5-1.5,7.7-1.7c-0.4,0.7-0.7,1.2-1,1.6
		c-1.8,1.9-3.6,3.8-5.4,5.8c-1,1-1.4,2.2-1.5,3.6C107.9,71,104,81.6,96,90.8c-6.8,7.8-15.2,12.7-25.3,14.6
		c-11.8,2.3-23.1,0.4-33.6-5.5c-0.2-0.1-0.4-0.3-0.6-0.4C36.4,99.5,36.3,99.4,36,98.9z"/>
</g>
</svg>
